# Blender v2.78 (sub 0) OBJ File: 'cube.obj'
# www.blender.org
o Plane
v -0.011519 1.992707 -0.058536
v 1.000000 -0.007293 -1.000000
v 1.000000 -0.007293 1.000000
v -1.000000 -0.007293 -1.000000
v -1.000000 -0.007293 1.000000
vt 0.000000 0.000000
vt 0.125000 0.750000
vt 0.375000 0.750000
vt 0.375000 0.500000
vt 0.125000 0.500000
vn 0.0000 0.4678 0.8838
vn 0.8924 0.4513 0.0000
vn -0.8965 0.4431 0.0000
vn 0.0000 -1.0000 0.0000
vn 0.0000 0.4259 -0.9048
s off
f 1/1/1 5/2/1 3/3/1
f 2/4/2 1/1/2 3/3/2
f 5/2/3 1/1/3 4/5/3
f 4/5/4 2/4/4 3/3/4 5/2/4
f 2/4/5 4/5/5 1/1/5
